Coordinates
version=1
nRows=16
nColumns=22
inDegrees=yes

Units are S.I. units (second, meters, Newtons, ...)
If the header above contains a line with 'inDegrees', this indicates whether rotational values are in degrees (yes) or radians (no).

endheader
time	pelvis_tilt	pelvis_list	pelvis_rotation	pelvis_tx	pelvis_ty	pelvis_tz	hip_flexion_r	hip_adduction_r	hip_rotation_r	knee_angle_r	ankle_angle_r	subtalar_angle_r	hip_flexion_l	hip_adduction_l	hip_rotation_l	knee_angle_l	ankle_angle_l	subtalar_angle_l	lumbar_extension	lumbar_bending	lumbar_rotation
      3.32000000	      1.50701961	      6.58037719	    171.78472713	      0.03405403	      0.98095800	     -0.68173415	    -11.11930980	      1.92944788	    -15.71455262	    -17.25078722	     14.39231111	     14.01869355	     28.86251587	     -6.67860272	    -29.67648305	    -13.71116148	      9.10568741	     -2.94903840	     -5.10846253	     -0.52403523	      3.78987626
      3.33000000	      1.51246255	      6.63141177	    172.05179564	      0.02261833	      0.97929855	     -0.68075642	    -11.49115735	      1.77931535	    -15.63134454	    -17.88608620	     14.08207050	     14.64681959	     28.77551770	     -6.61998244	    -29.90250153	    -12.91946961	      9.11074952	     -3.38864319	     -4.91455795	     -0.62885881	      3.94620796
      3.34000000	      1.49223822	      6.68128070	    172.23813558	      0.01086118	      0.97784711	     -0.67984550	    -11.85300063	      1.59545878	    -15.42392697	    -18.60130035	     13.64671341	     15.31591492	     28.68187885	     -6.67709890	    -30.04756067	    -12.67841583	      9.07707988	     -3.92738977	     -4.70990284	     -0.76652721	      4.15876753
      3.35000000	      1.43584668	      6.71071237	    172.37052071	     -0.00128562	      0.97663425	     -0.67891356	    -12.21726319	      1.35164515	    -15.15517776	    -19.39053099	     13.08141038	     16.10546581	     28.56712868	     -6.81147536	    -30.20899904	    -12.94737852	      8.97616864	     -4.61622801	     -4.49398017	     -0.94719499	      4.39967618
      3.36000000	      1.33375006	      6.71977041	    172.43404478	     -0.01378107	      0.97571716	     -0.67799640	    -12.58404523	      1.05003854	    -14.76738899	    -20.25586392	     12.34478335	     16.96856722	     28.42669269	     -7.03689721	    -30.53676491	    -13.69180331	      8.75539655	     -5.38248521	     -4.28375987	     -1.17412139	      4.67867014
      3.37000000	      1.18987301	      6.69027609	    172.46877614	     -0.02662759	      0.97511789	     -0.67700132	    -12.94187226	      0.67772644	    -14.31011923	    -21.19804912	     11.41225348	     17.93427186	     28.24554588	     -7.29288961	    -31.04604389	    -14.77966036	      8.38162592	     -6.24843502	     -4.07202014	     -1.46152082	      4.94899919
      3.38000000	      1.00853912	      6.61756250	    172.48552202	     -0.03977959	      0.97486694	     -0.67584795	    -13.26704067	      0.22717442	    -13.80834569	    -22.23210525	     10.24524401	     18.94645291	     28.00177815	     -7.54147576	    -31.72537727	    -16.06528859	      7.83887138	     -7.15709873	     -3.85889195	     -1.79611984	      5.20430367
      3.39000000	      0.79731768	      6.50873816	    172.49656914	     -0.05311292	      0.97499026	     -0.67449566	    -13.51622162	     -0.29358385	    -13.28751821	    -23.40043573	      8.83255500	     19.92380034	     27.68272083	     -7.75187758	    -32.48083179	    -17.40858054	      7.14580973	     -8.03913354	     -3.65630434	     -2.17252010	      5.47575898
      3.40000000	      0.58176273	      6.34249938	    172.57277730	     -0.06656560	      0.97545091	     -0.67278942	    -13.64473022	     -0.88679853	    -12.80473647	    -24.71993757	      7.13656608	     20.89751995	     27.30245297	     -7.82340235	    -33.14257999	    -18.66656337	      6.34422040	     -8.97671872	     -3.44330890	     -2.59772081	      5.62788346
      3.41000000	      0.37553727	      6.14827742	    172.69986031	     -0.07997479	      0.97622412	     -0.67070175	    -13.59874942	     -1.52943577	    -12.36783066	    -26.24085107	      5.17122524	     21.70662305	     26.88036673	     -7.76472183	    -33.59499648	    -19.79280451	      5.49870414	     -9.86319110	     -3.23227587	     -3.03014898	      5.74399693
      3.42000000	      0.19363293	      5.92940040	    172.89689321	     -0.09326221	      0.97724515	     -0.66819687	    -13.34285803	     -2.21034359	    -11.98754707	    -27.98933843	      2.95814184	     22.30778532	     26.44151592	     -7.55597287	    -33.78905308	    -20.76237663	      4.68585166	    -10.74379730	     -3.01747044	     -3.45981548	      5.78212680
      3.43000000	      0.04577375	      5.69427350	    173.16689658	     -0.10632385	      0.97844036	     -0.66525847	    -12.84695025	     -2.92409691	    -11.68126552	    -29.99189272	      0.55220716	     22.67065202	     26.00511194	     -7.19258383	    -33.67932179	    -21.56521595	      3.92825227	    -11.63598304	     -2.80432414	     -3.87256323	      5.76126252
      3.44000000	     -0.08456497	      5.46789747	    173.51946065	     -0.11912967	      0.97975768	     -0.66191876	    -12.13936275	     -3.64001357	    -11.44625312	    -32.23224272	     -1.99699890	     22.82219337	     25.56055658	     -6.70496930	    -33.28711732	    -22.22097910	      3.32722154	    -12.60613952	     -2.62017016	     -4.24339706	      5.66063934
      3.45000000	     -0.21658738	      5.25556516	    173.91505553	     -0.13165199	      0.98116597	     -0.65826413	    -11.24268808	     -4.35579214	    -11.22413086	    -34.69670576	     -4.58535792	     22.77143196	     25.07496065	     -6.12832403	    -32.71034815	    -22.73697563	      2.95394369	    -13.67751230	     -2.48686303	     -4.56936447	      5.52635599
      3.46000000	     -0.35243192	      5.03700280	    174.35194396	     -0.14385886	      0.98260088	     -0.65436951	    -10.17258600	     -5.08827422	    -11.03008757	    -37.36329653	     -7.07142164	     22.60458433	     24.55905758	     -5.47215063	    -32.00662230	    -23.15194267	      2.72996951	    -14.65561400	     -2.40892807	     -4.88449226	      5.37242824
      3.47000000	     -0.52029051	      4.83703157	    174.81321927	     -0.15575806	      0.98406405	     -0.65028517	     -8.98538357	     -5.80802509	    -10.83916620	    -40.17520637	     -9.37197657	     22.34722839	     23.97296452	     -4.78964869	    -31.27289730	    -23.47854569	      2.69926004	    -15.60211137	     -2.42016028	     -5.15898980	      5.21386229
